<?xml version="1.0" encoding="UTF-8"?>
<!DOCTYPE svg PUBLIC "-//W3C//DTD SVG 1.1//EN" "http://www.w3.org/Graphics/SVG/1.1/DTD/svg11.dtd">
<!-- Creator: CorelDRAW -->
<svg xmlns="http://www.w3.org/2000/svg" xml:space="preserve" width="16.7545in" height="17.4814in" version="1.1" style="shape-rendering:geometricPrecision; text-rendering:geometricPrecision; image-rendering:optimizeQuality; fill-rule:evenodd; clip-rule:evenodd"
viewBox="0 0 16761.95 17489.22"
 xmlns:xlink="http://www.w3.org/1999/xlink"
 xmlns:xodm="http://www.corel.com/coreldraw/odm/2003">
 <defs>
  <style type="text/css">
   <![CDATA[
    .fil3 {fill:#FEFEFE;fill-rule:nonzero}
    .fil2 {fill:#B6B7B6;fill-rule:nonzero}
    .fil0 {fill:#2F894C;fill-rule:nonzero}
    .fil1 {fill:url(#id2)}
   ]]>
  </style>
    <clipPath id="id0">
     <path d="M8384.18 17489.22c-1563.59,0 -3027.49,-428.25 -4279.83,-1174.53 471.75,-18.67 958.1,-34.16 1451.74,-46.84 882.71,315.2 1831.08,486.72 2820.79,486.72 989.71,0 1938.08,-171.51 2820.79,-486.72 500.94,12.68 989.71,28.53 1466.33,47.54 -1252.33,745.57 -2716.23,1173.82 -4279.83,1173.82l0 0z"/>
    </clipPath>
    <clipPath id="id1">
     <path d="M8377.24 16754.59c-989.57,0 -1939.05,-171.68 -2819.56,-486.69 907.78,-22.69 1850.84,-34.65 2819.56,-34.65 968.72,0 1911.78,11.96 2819.56,34.65 -880.51,315 -1829.99,486.69 -2819.56,486.69l0 0z"/>
    </clipPath>
  <radialGradient id="id2" gradientUnits="userSpaceOnUse" gradientTransform="matrix(1 -0 -0 -1 0 16593)" cx="8377.22" cy="8296.65" r="8377.22" fx="8377.22" fy="8296.65">
   <stop offset="0" style="stop-opacity:1; stop-color:#5FBB51"/>
   <stop offset="1" style="stop-opacity:1; stop-color:#2EA052"/>
  </radialGradient>
 </defs>
 <g id="Layer_x0020_1">
  <metadata id="CorelCorpID_0Corel-Layer"/>
  <g id="_2256265740880">
   <path class="fil0" d="M16761.95 9111.84c0,4626.65 -3750.7,8377.35 -8377.35,8377.35 -4626.51,0 -8377.18,-3750.7 -8377.18,-8377.35 0,-4626.65 3750.67,-8377.21 8377.18,-8377.21 4626.65,0 8377.35,3750.56 8377.35,8377.21z"/>
   <path class="fil1" d="M11197.38 16267.95c-907.63,-22.79 -1851.52,-34.74 -2820.15,-34.74 -968.62,0 -1912.52,11.95 -2820.15,34.74 -3103.6,-1109.25 -5361.5,-3998.17 -5545.04,-7437.34 -8.02,-150.2 -12.05,-301.11 -12.05,-453.26 0,-4626.65 3750.59,-8377.35 8377.24,-8377.35 4626.65,0 8377.21,3750.7 8377.21,8377.35 0,93.93 -1.53,188 -4.58,281.24 -115.89,3514.9 -2397.04,6481.5 -5552.48,7609.37z"/>
   <polygon class="fil2" points="11192.52,7918.11 6699.96,14377.11 6322.99,14332.5 6955.35,13214.09 7055.82,13186.02 8215.5,9305.4 5938.93,9090.03 9875.27,3466.55 10056.88,2847.94 10229.45,2377.45 10606.43,2422.05 8946.24,7625.07 "/>
   <polygon class="fil3" points="6322.99,14332.5 10815.41,7873.37 8569.27,7580.46 10229.45,2377.45 5561.95,9045.28 7838.52,9260.8 "/>
   <polygon class="fil2" points="11296.18,2704.68 11516.83,2681.05 11497.52,2831.26 "/>
   <path class="fil2" d="M8629.57 14874.27c-303.61,0 -607.36,-20.98 -902.63,-62.53l-73.92 -10.42 324.03 -840.65 45.44 5c199.81,21.95 403.93,33.07 607.08,33.07 3066.92,0 5562.06,-2495.14 5562.06,-5562.07 0,-2054.53 -1128.84,-3934.95 -2945.9,-4907.46l-46.27 -24.74 317.37 -823.42 58.77 30.16c591.24,304.16 1131.61,698.92 1606,1173.44 591.24,591.1 1055.33,1279.46 1379.36,2045.91 335.85,794.11 506.2,1637.26 506.2,2506.12 0,868.72 -170.35,1711.88 -506.2,2505.98 -324.03,766.59 -788.13,1454.96 -1379.36,2046.05 -591.1,591.24 -1279.46,1055.33 -2046.05,1379.51 -794.1,335.85 -1637.26,506.06 -2505.98,506.06z"/>
   <polygon class="fil2" points="7482.95,14693.49 7653.02,14801.32 7709.72,14766.31 7727.5,14685.3 "/>
   <path class="fil3" d="M14254.03 5894.43c-321.12,-759.5 -781.05,-1441.62 -1366.72,-2027.15 -471.18,-471.32 -1004.89,-861.08 -1591.13,-1162.6l-274.71 712.82c1770.23,947.51 2977.16,2815.42 2977.16,4959.85 0,3099.58 -2521.68,5621.4 -5621.4,5621.4 -207.31,0 -411.99,-11.26 -613.47,-33.35l-280.82 728.1c294.3,41.41 592.76,62.11 894.29,62.11 860.94,0 1696.17,-168.83 2482.91,-501.48 759.5,-321.12 1441.62,-781.04 2027.15,-1366.72 585.68,-585.68 1045.61,-1267.65 1366.72,-2027.29 332.79,-786.6 501.47,-1621.97 501.47,-2482.77 0,-860.94 -168.69,-1696.31 -501.47,-2482.91z"/>
   <path class="fil2" d="M5773.99 14251.77c-650.01,-313.19 -1240.83,-733.1 -1755.92,-1248.19 -590.96,-590.82 -1055.05,-1279.32 -1379.37,-2046.05 -335.84,-794.11 -506.2,-1637.26 -506.2,-2505.98 0,-868.86 170.36,-1712.01 506.2,-2506.12 324.31,-766.73 788.41,-1455.09 1379.37,-2046.05 590.82,-590.96 1279.32,-1055.05 2046.05,-1379.37 794.1,-335.84 1637.26,-506.2 2505.98,-506.2 361.13,0 721.71,29.88 1071.59,88.51l71.7 12.09 -322.09 835.23 -46.69 -6.53c-255.11,-35.57 -515.65,-53.63 -774.51,-53.63 -3066.92,0 -5562.06,2495 -5562.06,5562.06 0,2124.28 1184.83,4033.74 3092.21,4983.06l48.36 24.18 -316.53 820.92 -58.08 -27.93z"/>
   <path class="fil3" d="M2755.84 8377.35c0,-3099.72 2521.68,-5621.53 5621.4,-5621.53 265.54,0 526.76,18.62 782.71,54.33l279.01 -723.38c-348.35,-58.5 -702.96,-87.81 -1061.73,-87.81 -860.94,0 -1696.17,168.82 -2482.91,501.47 -759.51,321.25 -1441.62,781.05 -2027.16,1366.86 -585.68,585.54 -1045.47,1267.65 -1366.72,2027.15 -332.79,786.6 -501.48,1621.98 -501.48,2482.91 0,860.8 168.69,1696.17 501.48,2482.77 321.25,759.65 781.04,1441.62 1366.72,2027.29 510.78,510.78 1094.8,925.97 1739.67,1236.66l274.01 -710.45c-1850.55,-921.11 -3125.01,-2832.65 -3125.01,-5036.27z"/>
   <g style="clip-path:url(#id0)">
    <image x="4094.63" y="16259.75" width="8579.1" height="1242.5" xlink:href="solar energy_Images\solar energy_ImgID1.png"/>
   </g>
   <g style="clip-path:url(#id1)">
    <image x="5548.06" y="16220.84" width="5658.36" height="540.8" xlink:href="solar energy_Images\solar energy_ImgID2.png"/>
   </g>
  </g>
 </g>
</svg>
